<svg viewBox="0 0 100 100" xmlns="http://www.w3.org/2000/svg">
  <rect width="100" height="100" rx="22" fill="#ffffff" />
  <g transform="translate(10,10) scale(0.8)">
    <path d="M 50 15 C 30 15 15 30 15 50 C 15 60 20 68 28 73 L 36 63 C 31 59 28 55 28 50 C 28 38 38 28 50 28 C 55 28 59 29 63 32 L 73 24 C 67 18 59 15 50 15 Z" fill="#4285F4"/>
    <path d="M 85 50 C 85 30 70 15 50 15 C 41 15 33 18 27 24 L 37 32 C 41 29 45 28 50 28 C 62 28 72 38 72 50 C 72 55 71 59 68 63 L 78 73 C 83 66 85 58 85 50 Z" fill="#EA4335"/>
    <path d="M 50 85 C 70 85 85 70 85 50 C 85 42 82 34 77 28 L 67 38 C 70 41 72 45 72 50 C 72 62 62 72 50 72 C 45 72 41 71 37 68 L 27 78 C 34 83 41 85 50 85 Z" fill="#FBBC05"/>
    <path d="M 15 50 C 15 70 30 85 50 85 C 58 85 66 82 72 77 L 62 67 C 59 70 55 72 50 72 C 38 72 28 62 28 50 C 28 45 29 41 32 37 L 22 27 C 18 34 15 41 15 50 Z" fill="#34A853"/>
  </g>
</svg>
